# xmcd
#
# Track frame offsets:
# 188
# 31013
# 47038
# 61313
# 98788
# 123713
# 135938
# 149813
#
# Disc length: 2595 seconds
#
#
# Revision: 4
# Processed by: cddbd v1.5.1PL2 Copyright (c) Steve Scherf et al.
# Submitted via: FreeRIP 2.943 
#
DISCID=6f0a2108
DTITLE=Amancio Prada - Emboscados
DYEAR=1900
DGENRE=Country
TTITLE0=Llegaron al galope
TTITLE1=Cada soldado una canción
TTITLE2=La luz no siempre
TTITLE3=Madre, miña, mae, mamma
TTITLE4=Muy lejos una mujer
TTITLE5=El narrador piensa en voz alta
TTITLE6=Triste partir
TTITLE7=En medio del bosque. Mañana
EXTD=
EXTT0=
EXTT1=
EXTT2=
EXTT3=
EXTT4=
EXTT5=
EXTT6=
EXTT7=
PLAYORDER=
